PathFileType	4	(X/Y/Z)	/Users/itak/Documents/Research/Walk-IL/dataset/trc/00111_00007.trc
DataRate	CameraRate	NumFrames	NumMarkers	Units	OrigDataRate	OrigDataStartFrame	OrigNumFrames
100.000000	100.000000	4	53	mm	100.000000	483	552
Frame#	Time	RPSI			LPSI			L3			STRN			T10			C7			CLAV			RBAK			LBAK			LSHO			LUPA			LAEL			LAOL			LWTS			LWPS			LFRA			LIFD			LHPS			LHTS			RSHO			RUPA			RAEL			RAOL			RWTS			RWPS			RFRA			RIFD			RHTS			RHPS			RBHD			LFHD			RFHD			LBHD			LHIP			RHIP			RASI			LASI			LKNE			LTHI			LANK			LTIP			LTOE			LMT1			LMT5			LHEE			RKNE			RTHI			RANK			RTIP			RTOE			RMT1			RMT5			RHEE			
		X1	Y1	Z1	X2	Y2	Z2	X3	Y3	Z3	X4	Y4	Z4	X5	Y5	Z5	X6	Y6	Z6	X7	Y7	Z7	X8	Y8	Z8	X9	Y9	Z9	X10	Y10	Z10	X11	Y11	Z11	X12	Y12	Z12	X13	Y13	Z13	X14	Y14	Z14	X15	Y15	Z15	X16	Y16	Z16	X17	Y17	Z17	X18	Y18	Z18	X19	Y19	Z19	X20	Y20	Z20	X21	Y21	Z21	X22	Y22	Z22	X23	Y23	Z23	X24	Y24	Z24	X25	Y25	Z25	X26	Y26	Z26	X27	Y27	Z27	X28	Y28	Z28	X29	Y29	Z29	X30	Y30	Z30	X31	Y31	Z31	X32	Y32	Z32	X33	Y33	Z33	X34	Y34	Z34	X35	Y35	Z35	X36	Y36	Z36	X37	Y37	Z37	X38	Y38	Z38	X39	Y39	Z39	X40	Y40	Z40	X41	Y41	Z41	X42	Y42	Z42	X43	Y43	Z43	X44	Y44	Z44	X45	Y45	Z45	X46	Y46	Z46	X47	Y47	Z47	X48	Y48	Z48	X49	Y49	Z49	X50	Y50	Z50	X51	Y51	Z51	X52	Y52	Z52	X53	Y53	Z53	

484	4.83	-1319.594970703125	1128.342163085938	-247.0762023925781	-1322.510986328125	1129.492431640625	-381.8668212890625	-1326.731201171875	1161.623413085938	-317.2527160644531	-1112.669921875	1360.357543945312	-325.8515014648438	-1367.188842773438	1309.164184570312	-322.5469055175781	-1333.6767578125	1601.302734375	-342.5288696289062	-1150.138305664062	1495.23828125	-331.5838317871094	-1385.357666015625	1418.436157226562	-251.6371765136719	-1342.65673828125	1580.0849609375	-443.67431640625	-1256.228637695312	1566.712890625	-511.27294921875	-1275.286254882812	1434.817993164062	-580.5155639648438	-1254.273559570312	1215.630493164062	-601.0372314453125	-1323.82861328125	1202.734497070312	-549.2135009765625	-1154.9013671875	959.9586791992188	-546.9132080078125	-1232.456665039062	933.3009033203125	-580.9920043945312	-1235.456176757812	1100.067749023438	-602.7574462890625	-1143.616821289062	766.6868286132812	-523.8671264648438	-1203.089721679688	858.429931640625	-578.68310546875	-1138.031372070312	870.4755859375	-556.1065673828125	-1280.894775390625	1586.742553710938	-161.8379211425781	-1298.838134765625	1514.509521484375	-97.17099761962891	-1310.079223632812	1220.595947265625	-70.97815704345703	-1313.477172851562	1217.727294921875	-167.7893829345703	-1161.618041992188	980.8880004882812	-74.0501708984375	-1236.547241210938	962.9820556640625	-44.26296997070312	-1286.42333984375	1148.051513671875	-52.96216201782227	-1134.803588867188	785.212158203125	-86.82012176513672	-1130.3447265625	872.9168090820312	-65.52099609375	-1198.707641601562	864.4894409179688	-35.97237777709961	-1288.86279296875	1780.802368164062	-266.0827941894531	-1122.239135742188	1834.735961914062	-400.165283203125	-1121.4384765625	1840.706420898438	-270.3569946289062	-1296.937377929688	1779.297729492188	-401.3909606933594	-1234.75390625	1038.484985351562	-489.5187683105469	-1193.929565429688	1029.476440429688	-130.0154876708984	-1111.654052734375	1103.64697265625	-188.0908050537109	-1124.943481445312	1100.825073242188	-453.4483337402344	-1226.75537109375	536.4708251953125	-467.9262390136719	-1243.956909179688	683.8465576171875	-494.1248168945312	-1345.253295898438	36.8026008605957	-465.3834228515625	-1330.83544921875	293.1860961914062	-497.2889099121094	-1118.136962890625	38.68014526367188	-394.8288879394531	-1201.353759765625	42.01830291748047	-366.1253051757812	-1217.822265625	33.53273010253906	-483.3859252929688	-1416.663818359375	37.8419189453125	-405.9273376464844	-1213.093627929688	536.1788330078125	-175.2067260742188	-1179.295532226562	815.236328125	-141.3330230712891	-1333.663208007812	29.68973731994629	-200.2220611572266	-1243.22607421875	402.5943298339844	-165.4088134765625	-1103.120483398438	46.78876876831055	-250.1327056884766	-1161.152587890625	32.13778305053711	-292.7576599121094	-1199.125122070312	42.58198928833008	-179.744140625	-1392.030639648438	33.16039657592773	-250.1462860107422	
485	4.84	-1319.981201171875	1128.2578125	-248.4032897949219	-1322.613403320312	1129.352905273438	-383.1695251464844	-1327.0595703125	1161.40625	-318.5751647949219	-1112.976684570312	1360.411743164062	-326.6661071777344	-1367.591064453125	1308.947875976562	-323.8446960449219	-1334.31298828125	1601.149169921875	-343.3446960449219	-1150.713134765625	1495.244262695312	-332.3359375	-1385.91162109375	1418.172607421875	-252.6850891113281	-1343.22705078125	1579.96240234375	-444.5034790039062	-1256.691040039062	1566.688598632812	-512.081298828125	-1275.46728515625	1434.70654296875	-581.2947998046875	-1253.841430664062	1215.542846679688	-601.6961669921875	-1323.296508789062	1202.407958984375	-549.7962036132812	-1153.13623046875	960.4768676757812	-547.457763671875	-1230.641479492188	933.3541259765625	-581.3219604492188	-1234.498779296875	1100.067138671875	-603.3140869140625	-1140.48779296875	767.3516845703125	-524.3812255859375	-1200.754150390625	858.6620483398438	-579.053955078125	-1135.743408203125	871.1649169921875	-556.6959838867188	-1281.643188476562	1586.499389648438	-162.5972900390625	-1299.372314453125	1514.208984375	-97.98352813720703	-1309.182495117188	1220.151977539062	-71.59785461425781	-1312.97216796875	1217.25390625	-168.3900299072266	-1158.98779296875	981.51806640625	-75.29396820068359	-1233.650024414062	963.0474243164062	-45.14784240722656	-1284.968017578125	1147.724243164062	-53.68124389648438	-1130.340698242188	786.469970703125	-88.25127410888672	-1126.822631835938	873.8145141601562	-66.96768188476562	-1195.025512695312	864.8377685546875	-37.08635330200195	-1289.805908203125	1780.738891601562	-266.943115234375	-1123.627319335938	1834.8486328125	-401.4269104003906	-1122.611328125	1841.132446289062	-271.6217956542969	-1298.11669921875	1778.901489257812	-402.1994018554688	-1234.49365234375	1038.363037109375	-490.564453125	-1194.349365234375	1029.541259765625	-131.1354370117188	-1112.103149414062	1103.720703125	-188.9518280029297	-1124.817016601562	1100.845825195312	-454.3632507324219	-1226.783325195312	536.48193359375	-468.2789611816406	-1243.742919921875	683.7202758789062	-494.5791320800781	-1345.234985351562	36.84067916870117	-465.3165588378906	-1330.739868164062	293.0779113769531	-497.54052734375	-1118.057739257812	38.60864639282227	-394.7687377929688	-1201.298706054688	41.96293258666992	-366.0628967285156	-1217.832763671875	33.53411483764648	-483.3469848632812	-1416.650268554688	37.92292404174805	-405.8533325195312	-1213.657348632812	536.3739624023438	-175.6575622558594	-1179.724731445312	815.4365844726562	-142.1472320556641	-1333.606689453125	29.80167388916016	-200.3169403076172	-1243.814208984375	402.8522033691406	-165.8811950683594	-1102.974487304688	46.2789421081543	-250.1958770751953	-1160.962768554688	31.90219116210938	-292.8571472167969	-1199.05029296875	42.49024963378906	-179.8002624511719	-1391.962646484375	33.26166152954102	-250.2821960449219	
486	4.850000000000001	-1320.359985351562	1128.187622070312	-249.6967010498047	-1322.699951171875	1129.238647460938	-384.438720703125	-1327.372802734375	1161.212036132812	-319.8681945800781	-1113.311279296875	1360.5009765625	-327.4573669433594	-1368.009643554688	1308.7705078125	-325.0911254882812	-1334.938354492188	1601.013549804688	-344.1592407226562	-1151.290405273438	1495.279052734375	-333.0682678222656	-1386.483764648438	1417.918212890625	-253.7898559570312	-1343.767822265625	1579.886474609375	-445.3393859863281	-1257.115112304688	1566.725708007812	-512.8762817382812	-1275.604736328125	1434.677490234375	-582.076171875	-1253.361206054688	1215.523803710938	-602.328369140625	-1322.730102539062	1202.1640625	-550.3782348632812	-1151.3896484375	961.0484008789062	-547.9146728515625	-1228.855712890625	933.4797973632812	-581.6046752929688	-1233.496215820312	1100.13232421875	-603.8262329101562	-1137.440551757812	768.064208984375	-524.778564453125	-1198.464721679688	858.9663696289062	-579.3555908203125	-1133.498413085938	871.897705078125	-557.1832275390625	-1282.429321289062	1586.260620117188	-163.3553619384766	-1299.961059570312	1513.899536132812	-98.7960205078125	-1308.289428710938	1219.71337890625	-72.22438812255859	-1312.440795898438	1216.77294921875	-169.0030670166016	-1156.376220703125	982.165283203125	-76.46057891845703	-1230.782470703125	963.1461791992188	-45.98788070678711	-1283.523681640625	1147.415771484375	-54.39416122436523	-1125.8935546875	787.7283935546875	-89.51600646972656	-1123.322631835938	874.7456665039062	-68.27272796630859	-1191.379150390625	865.2325439453125	-38.08942794799805	-1290.706420898438	1780.675903320312	-267.7471313476562	-1124.963745117188	1834.97265625	-402.6404113769531	-1123.739868164062	1841.538818359375	-272.8348083496094	-1299.242309570312	1778.523315429688	-402.9739685058594	-1234.248168945312	1038.26806640625	-491.5960388183594	-1194.731323242188	1029.62353515625	-132.2331848144531	-1112.538452148438	1103.816772460938	-189.8074493408203	-1124.712768554688	1100.898559570312	-455.2745971679688	-1226.60546875	536.4710083007812	-468.6192932128906	-1243.354248046875	683.5935668945312	-494.9928894042969	-1345.207275390625	36.8931884765625	-465.2426147460938	-1330.510009765625	292.9732055664062	-497.7701110839844	-1117.954833984375	38.5272331237793	-394.6954650878906	-1201.230712890625	41.89616775512695	-365.98876953125	-1217.829711914062	33.54222106933594	-483.3070068359375	-1416.625122070312	38.02253341674805	-405.7706604003906	-1214.153930664062	536.5616455078125	-176.1584014892578	-1180.111938476562	815.6316528320312	-142.9851379394531	-1333.554321289062	29.92075538635254	-200.418212890625	-1244.334106445312	403.1100158691406	-166.4033508300781	-1102.846435546875	45.82678985595703	-250.2548370361328	-1160.742065429688	31.71834754943848	-292.9761047363281	-1198.97412109375	42.418212890625	-179.8594055175781	-1391.900146484375	33.36112976074219	-250.418701171875	
487	4.86	-1320.724609375	1128.130004882812	-250.9586334228516	-1322.76416015625	1129.143798828125	-385.6774291992188	-1327.664916992188	1161.044921875	-321.1345520019531	-1113.680419921875	1360.622924804688	-328.2246398925781	-1368.435913085938	1308.621948242188	-326.2972106933594	-1335.560546875	1600.892211914062	-344.9747009277344	-1151.868530273438	1495.3427734375	-333.7798156738281	-1387.072509765625	1417.67626953125	-254.9323272705078	-1344.279663085938	1579.8505859375	-446.1840515136719	-1257.500854492188	1566.821533203125	-513.6539916992188	-1275.6923828125	1434.731323242188	-582.86376953125	-1252.826416015625	1215.574462890625	-602.9395751953125	-1322.128051757812	1202.004150390625	-550.9746704101562	-1149.665649414062	961.6690673828125	-548.2778930664062	-1227.093383789062	933.6771850585938	-581.8480224609375	-1232.44482421875	1100.263427734375	-604.2998657226562	-1134.507934570312	768.8154907226562	-525.0471801757812	-1196.222534179688	859.3382568359375	-579.5865478515625	-1131.301391601562	872.6640625	-557.5527954101562	-1283.244750976562	1586.0361328125	-164.1151885986328	-1300.599243164062	1513.593872070312	-99.60332489013672	-1307.420288085938	1219.293090820312	-72.86910247802734	-1311.887573242188	1216.302978515625	-169.6394653320312	-1153.800903320312	982.8405151367188	-77.54853820800781	-1227.966918945312	963.2850952148438	-46.79485321044922	-1282.113159179688	1147.137451171875	-55.10832977294922	-1121.528076171875	788.9597778320312	-90.61338043212891	-1119.871215820312	875.7191772460938	-69.43315887451172	-1187.789916992188	865.6810913085938	-38.991943359375	-1291.57568359375	1780.621215820312	-268.4994812011719	-1126.24462890625	1835.100952148438	-403.8014221191406	-1124.823608398438	1841.916259765625	-273.9933166503906	-1300.322875976562	1778.176513671875	-403.7200317382812	-1234.01318359375	1038.19287109375	-492.6128234863281	-1195.095825195312	1029.721557617188	-133.3126983642578	-1112.956176757812	1103.934326171875	-190.6530456542969	-1124.61767578125	1100.9814453125	-456.1759643554688	-1226.279907226562	536.4398193359375	-468.9714660644531	-1242.843994140625	683.4714965820312	-495.3999938964844	-1345.170532226562	36.95179748535156	-465.1707458496094	-1330.188598632812	292.8759765625	-497.99072265625	-1117.835815429688	38.43841552734375	-394.6148376464844	-1201.154541015625	41.82489013671875	-365.9109802246094	-1217.810424804688	33.55527877807617	-483.2725830078125	-1416.59130859375	38.13447570800781	-405.6921081542969	-1214.58154296875	536.743408203125	-176.6973114013672	-1180.45263671875	815.832275390625	-143.8337554931641	-1333.506958007812	30.04533767700195	-200.5235748291016	-1244.786254882812	403.3652954101562	-166.9607543945312	-1102.71923828125	45.43688201904297	-250.3082275390625	-1160.505493164062	31.58232688903809	-293.1055297851562	-1198.898315429688	42.36288833618164	-179.9188842773438	-1391.841552734375	33.45590209960938	-250.5546264648438	
